<?xml version="1.0" standalone="no"?>
<!DOCTYPE svg PUBLIC "-//W3C//DTD SVG 20010904//EN"
 "http://www.w3.org/TR/2001/REC-SVG-20010904/DTD/svg10.dtd">
<svg version="1.0" xmlns="http://www.w3.org/2000/svg"
 width="512.000000pt" height="512.000000pt" viewBox="0 0 512.000000 512.000000"
 preserveAspectRatio="xMidYMid meet">
<metadata>
Created by potrace 1.11, written by Peter Selinger 2001-2013
</metadata>
<g transform="translate(0.000000,512.000000) scale(0.100000,-0.100000)"
fill="#000000" stroke="none">
<path d="M1602 4298 c-17 -17 -17 -3569 0 -3586 16 -16 859 -17 889 -2 18 10
19 28 19 663 0 495 3 656 12 665 9 9 176 12 690 12 l678 0 10 26 c11 27 14
614 4 652 l-6 22 -682 0 c-517 0 -685 3 -694 12 -17 17 -17 779 0 796 9 9 191
12 759 12 460 0 750 4 754 9 7 13 7 709 0 722 -10 15 -2418 12 -2433 -3z"/>
</g>
</svg>
